<?xml version="1.0" encoding="UTF-8"?>
<svg width="235px" height="639px" viewBox="0 0 235 639" version="1.1" xmlns="http://www.w3.org/2000/svg" xmlns:xlink="http://www.w3.org/1999/xlink">
    <title>Female/Back/Focus/Head</title>
    <g id="Page-1" stroke="none" stroke-width="1" fill="none" fill-rule="evenodd" fill-opacity="0.25">
        <g id="Female/Back/Focus " fill="#4299E1" stroke="#4299E1" stroke-width="2">
            <path d="M86.3648445,38.8272255 C89.0045827,26.189153 101.305999,20.5080981 111.131521,20.5080981 C120.957044,20.5080981 134.945674,24.1315277 136.827519,41.1585116 C137.332338,45.7261282 137.132131,50.4330903 136.226897,55.2793977 C139.310227,53.2177095 140.851892,53.4605045 140.851892,56.0077826 C140.851892,60.4128281 139.61774,65.8378177 138.251489,69.5278741 C137.06511,72.7321234 135.493596,73.4981346 133.536948,71.8259077 C132.837105,78.2730854 131.853223,82.2658904 130.585303,83.8043225 C117.105968,100.159488 104.422216,95.7334647 94.0409417,86.687313 C91.8332984,84.763592 90.5065192,82.8486428 89.4710878,78.7567585 C88.4356564,74.6648741 88.4356564,73.9335093 87.9008591,71.8259077 C84.0527812,75.7155004 83.6272004,71.3145637 82.6098822,67.0350396 C81.5925639,62.7555155 80.8798037,61.9074098 80.8798037,57.6440707 C80.8798037,54.8018446 82.4196215,54.6167834 85.4992572,57.0888871 C85.1759915,49.2248578 85.4645206,43.1376373 86.3648445,38.8272255 Z" id="Head"></path>
        </g>
    </g>
</svg>