<?xml version="1.0" encoding="UTF-8"?>
<svg width="235px" height="639px" viewBox="0 0 235 639" version="1.1" xmlns="http://www.w3.org/2000/svg" xmlns:xlink="http://www.w3.org/1999/xlink">
    <title>Female/Back/Focus/Left Hand</title>
    <g id="Page-1" stroke="none" stroke-width="1" fill="none" fill-rule="evenodd" fill-opacity="0.25">
        <g id="Female/Back/Focus " fill="#4299E1" stroke="#4299E1" stroke-width="2">
            <path d="M30.9049696,312.227369 C28.951405,314.494949 23.3035396,316.049992 20.9642833,318.801565 C18.625027,321.553139 16.2362787,324.417641 15.0438815,325.225415 C10.4116773,328.363442 5.39355397,335.384024 5.39355397,336.454145 C5.39355397,337.524266 11.7638968,337.463531 15.7628339,334.140085 C18.2312748,332.088608 19.6913453,327.458516 23.7932882,329.000872 C25.2832026,329.561089 22.37446,342.893182 21.9827441,345.347364 C20.8010087,352.751184 19.3210226,360.826667 19.5180902,362.240776 C19.8167469,364.383866 21.0329565,367.429879 23.2766303,365.18425 C24.8121442,363.647397 25.9905855,353.353826 26.6566067,350.450568 C27.3226279,347.547309 29.5535682,340.409208 30.9049696,340.409208 C32.256371,340.409208 31.1083664,344.19215 30.2435216,350.873214 C29.3786768,357.554278 28.2202281,368.647262 29.6538524,370.221852 C33.1637271,374.076845 34.0967719,366.503063 34.3172735,365.18425 C35.0858954,360.587146 35.4493782,342.779702 38.2939614,342.14854 C40.4787253,341.66378 40.3212232,368.302294 44.7930959,367.626887 C49.2649686,366.951479 43.9935372,338.903932 45.9269564,338.768929 C47.8603757,338.633926 50.2528197,356.013007 50.8568934,357.991728 C51.4609672,359.970449 55.4667044,361.018831 54.9164525,357.991728 C50.8892702,335.836971 50.3593616,325.673014 49.5130789,316.57715 C45.1307124,315.021171 41.4147505,312.227369 30.9049696,312.227369 Z" id="Left-Hand"></path>
        </g>
    </g>
</svg>