<?xml version="1.0" encoding="UTF-8"?>
 <svg width="235px" height="639px" viewBox="0 0 235 639" version="1.1" xmlns="http://www.w3.org/2000/svg" xmlns:xlink="http://www.w3.org/1999/xlink">
    <title>Head</title>
    <g id="Page-1" stroke="none" stroke-width="1" fill="none" fill-rule="evenodd" fill-opacity="0.25">
        <g id="Male/Back/Focus"   fill="#4299E1" stroke="#4299E1" stroke-width="2">
            <path d="M84.2687279,28.8272255 C83.0459809,13.5618368 97.0039523,2.10678876 111.995218,2.10678876 C125.411974,2.10678876 137.179066,7.80823094 138.376435,28.8272255 C138.376435,35.4447423 138.376435,38.7911324 138.376435,38.8663958 C142.381131,36.6680638 144.383478,37.8886598 144.383478,42.5281837 C144.383478,49.4874696 143.010409,49.6835385 140.435787,55.6005781 C138.719373,59.5452712 136.935222,60.2836439 135.083334,57.8156962 C134.011742,67.6293745 133.310063,73.0551249 132.978299,74.0929475 C132.741532,74.8335997 129.688625,77.6658682 125.884021,81.8479974 C124.790364,83.0501759 122.768089,84.7035255 119.817194,86.8080463 C118.489939,87.7539533 116.894488,88.2269069 115.030842,88.2269069 C113.167195,88.2269069 109.990248,88.2269069 105.5,88.2269069 C103.100556,88.3936496 100.724467,87.2652101 98.371734,84.8415882 C96.0190009,82.4179663 93.0845935,78.2555859 89.5685117,72.354447 C88.3725593,70.0741733 87.7745831,67.6442904 87.7745831,65.0647985 C87.7745831,62.4853066 87.6380036,60.5886471 87.3648445,59.37482 C85.1638143,59.5481924 83.7241931,58.2083705 83.0459809,55.3553544 C82.0286627,51.0758303 79.1444884,43.9143102 79.6704698,40.0402175 C80.0211241,37.457489 81.5538768,37.330881 84.2687279,39.6603933 C84.2687279,40.3756389 84.2687279,36.764583 84.2687279,28.8272255 Z" id="Head"></path>
        </g>
    </g>
</svg>