<?xml version="1.0" encoding="UTF-8"?>
<svg width="235px" height="639px" viewBox="0 0 235 639" version="1.1" xmlns="http://www.w3.org/2000/svg" xmlns:xlink="http://www.w3.org/1999/xlink">
    <title>Male/Front/Hover/Left Leg</title>
    <g id="Page-1" stroke="none" stroke-width="1" fill="none" fill-rule="evenodd" fill-opacity="0.25">
        <g id="Male/Front/Hover " fill="#A0AEC0" stroke="#A1AFC2" stroke-width="2">
            <path d="M121.507089,312.487877 C120.720058,319.546019 113.72698,342.828256 129.353823,404.642402 C131.371124,409.584609 132.472447,415.208477 132.657792,421.514005 C148.941972,429.246722 162.409082,428.716534 173.05912,419.923441 C174.470106,418.917554 173.627847,409.650273 173.627847,403.383193 C173.627847,397.116113 173.894277,389.110311 176.153792,372.398759 C178.731263,340.121426 176.153792,328.27259 173.627847,323.944448 C171.101901,319.616305 163.295278,313.54586 159.091386,304.430967 C154.887494,295.316073 152.40681,289.771999 146.032946,280.627758 C144.508534,278.440767 144.9672,281.634046 121.507089,312.487877 Z" id="Left-Leg" transform="translate(148.246870, 353.511477) scale(-1, 1) translate(-148.246870, -353.511477) "></path>
        </g>
    </g>
</svg>