<?xml version="1.0" encoding="UTF-8"?>
 <svg width="235px" height="639px" viewBox="0 0 235 639" version="1.1" xmlns="http://www.w3.org/2000/svg" xmlns:xlink="http://www.w3.org/1999/xlink">
    <title>Groin</title>
    <g id="Page-1" stroke="none" stroke-width="1" fill="none" fill-rule="evenodd" fill-opacity="0.25">
        <g id="Male/Front/Active"   fill="#F56565" stroke="#F56565" stroke-width="2">
            <path d="M91.1412771,252.33196 C91.1412771,254.590907 91.4975817,257.07064 91.1412771,262.493374 C90.7581523,268.324296 88.5677428,274.86832 87.0434796,277.993265 C94.4289934,286.184554 96.0508542,296.041354 99.6328921,303.141808 C102.692317,309.206319 106.63982,315.032221 112.212439,321.860685 C115.851075,324.833017 121.813889,324.086853 123.100719,322.917617 C127.966113,318.496832 132.414617,312.132355 136.766414,304.882546 C141.225725,297.453625 146.082895,284.118314 151.04348,279.993265 C147.736423,275.434295 146.082895,266.837763 146.082895,254.203672 C137.371317,257.801397 129.154957,259.60026 121.433814,259.60026 C109.8521,259.60026 97.5626943,255.475221 91.1412771,252.33196 Z" id="Groin"></path>
        </g>
    </g>
</svg>