<?xml version="1.0" encoding="UTF-8"?>
 <svg width="235px" height="639px" viewBox="0 0 235 639" version="1.1" xmlns="http://www.w3.org/2000/svg" xmlns:xlink="http://www.w3.org/1999/xlink">
    <title>Chest</title>
    <g id="Page-1" stroke="none" stroke-width="1" fill="none" fill-rule="evenodd" fill-opacity="0.25">
        <g id="Female/Front/Hover"   fill="#A0AEC0" stroke="#A1AFC2" stroke-width="2">
            <path d="M76.4540081,140.247732 C78.6921966,128.156929 82.6619088,127.923546 88.1944886,124.27188 C92.83816,123.901851 93.7741549,123.901851 98.1559251,124.27188 C103.478581,124.721364 118,129.707616 124.539907,129.707616 C131.076621,129.707616 134.103115,127.717173 143.258617,125.273116 C147.009274,124.27188 151.63168,124.053135 156.109396,124.552623 C170.327452,126.138644 165.571439,136.087219 163.519137,150.935245 C162.57557,157.761775 179.140439,175.229726 165.571439,190.310661 C158.645765,198.008033 140.552278,192.932104 134.824324,184.083482 C132.323407,180.220031 125.369727,178.087538 123.236909,178.087538 C116.242898,178.087538 111.72429,183.179478 109.427102,185.720312 C103.949263,191.779148 85.722801,199.627778 74.5322483,182.082859 C68.8498729,173.173842 78.2607297,163.920663 77.704289,155.90439 C77.1478484,147.888117 75.1005743,147.559047 76.4540081,140.247732 Z" id="Chest"></path>
        </g>
    </g>
</svg>