<?xml version="1.0" encoding="UTF-8"?>
 <svg width="235px" height="639px" viewBox="0 0 235 639" version="1.1" xmlns="http://www.w3.org/2000/svg" xmlns:xlink="http://www.w3.org/1999/xlink">
    <title>Head</title>
    <g id="Page-1" stroke="none" stroke-width="1" fill="none" fill-rule="evenodd" fill-opacity="0.25">
        <g id="Female/Front/Hover"   fill="#A0AEC0" stroke="#A1AFC2" stroke-width="2">
            <path d="M100.364844,38.8272255 C103.004583,26.189153 115.305999,20.5080981 125.131521,20.5080981 C134.957044,20.5080981 148.945674,24.1315277 150.827519,41.1585116 C151.332338,45.7261282 151.056314,50.1666507 149.999448,54.480079 C153.234411,52.9512699 154.851892,53.4605045 154.851892,56.0077826 C154.851892,60.4128281 153.858773,62.9405639 152.492523,66.6306203 C151.306143,69.8348696 149.817366,70.9442017 148.026192,69.9586166 C146.064031,78.1512646 144.917068,82.7664999 144.585303,83.8043225 C144.348536,84.5449746 142.688625,87.6658682 138.884021,91.8479974 C137.790364,93.0501759 135.768089,94.7035255 132.817194,96.8080463 C131.489939,97.7539533 129.894488,98.2269069 128.030842,98.2269069 C126.167195,98.2269069 123.828948,98.2269069 121.016101,98.2269069 C116.939256,98.3936496 113.724467,97.2652101 111.371734,94.8415882 C109.019001,92.4179663 106.919902,89.0073669 105.074436,84.60979 C104.06763,83.1878756 103.219083,81.1129569 102.528796,78.385034 C101.493364,74.2931496 102.554899,73.3662024 101.329202,71.0772221 C97.0632992,72.6323097 97.0632992,69.6348785 96.0459809,65.3553544 C95.0286627,61.0758303 93.8300472,58.3541717 94.3560286,54.480079 C94.7066829,51.8973505 96.2594596,51.8973505 99.0143587,54.480079 C99.0143587,48.3552551 99.4645206,43.1376373 100.364844,38.8272255 Z" id="Head"></path>
        </g>
    </g>
</svg>