<?xml version="1.0" encoding="UTF-8"?>
<svg width="235px" height="639px" viewBox="0 0 235 639" version="1.1" xmlns="http://www.w3.org/2000/svg" xmlns:xlink="http://www.w3.org/1999/xlink">
    <title>Female/Front/Hover/Left Hand</title>
    <g id="Page-1" stroke="none" stroke-width="1" fill="none" fill-rule="evenodd" fill-opacity="0.25">
        <g id="Female/Front/Hover " fill="#A0AEC0" stroke="#A1AFC2" stroke-width="2">
            <path d="M204.798412,315.025397 C202.844847,317.292977 197.918194,318.589657 195.578938,321.341231 C193.239681,324.092804 188.769531,328.722805 187.577134,329.530579 C182.94493,332.668606 180.171471,335.1225 180.386709,337.38827 C180.601948,339.654039 185.701889,339.615677 189.700826,336.292232 C192.169267,334.240755 194.775814,329.267298 198.877757,330.809655 C200.367671,331.369872 197.37446,346.893182 196.982744,349.347364 C195.801009,356.751184 195.38187,362.153838 195.578938,363.567948 C195.877594,365.711037 198.686246,367.664921 199.97983,365.00693 C201.143553,360.730005 201.657181,357.08103 202.323202,354.177772 C202.989224,351.274513 203.89212,344.611178 205.243522,344.611178 C206.594923,344.611178 206.108366,348.19215 205.243522,354.873214 C204.378677,361.554278 204.168476,370.482779 205.602101,372.057369 C209.111975,375.912362 209.699802,368.93935 209.920304,367.620536 C210.688925,363.023433 210.449378,346.779702 213.293961,346.14854 C215.478725,345.66378 215.332531,369.703344 220.603194,369.18425 C225.873858,368.665155 218.993537,342.903932 220.926956,342.768929 C222.860376,342.633926 225.873858,356.904132 226.477932,358.882853 C227.082006,360.861574 230.413507,361.603301 229.863255,358.576197 C225.836073,336.421441 226.414041,327.393822 225.567758,318.297958 C221.185392,316.741979 217.570501,315.527192 204.798412,315.025397 Z" id="Left-Hand" transform="translate(205.149691, 344.115813) scale(-1, 1) translate(-205.149691, -344.115813) "></path>
        </g>
    </g>
</svg>