<?xml version="1.0" encoding="UTF-8"?>
<svg width="235px" height="639px" viewBox="0 0 235 639" version="1.1" xmlns="http://www.w3.org/2000/svg" xmlns:xlink="http://www.w3.org/1999/xlink">
    <title>Female/Front/Hover/Right Hand</title>
    <g id="Page-1" stroke="none" stroke-width="1" fill="none" fill-rule="evenodd" fill-opacity="0.25">
        <g id="Female/Front/Hover " fill="#A0AEC0" stroke="#A1AFC2" stroke-width="2">
            <path d="M24.2880442,309.612186 C22.3344796,311.879765 16.3035396,314.049992 13.9642833,316.801565 C11.625027,319.553139 9.23627874,322.417641 8.04388152,323.225415 C3.41167734,326.363442 -1.81188398e-13,329.222111 -1.81188398e-13,330.292232 C-1.81188398e-13,331.362353 5.72581816,332.481041 9.72475523,329.157596 C12.1931962,327.106119 14.6830402,322.713427 18.7849831,324.255784 C20.2748974,324.816001 15.37446,340.893182 14.9827441,343.347364 C13.8010087,350.751184 12.2705181,354.455431 12.4675856,355.869541 C12.7662423,358.01263 13.7749215,361.372516 16.0185953,359.126886 C17.5541092,357.590034 18.9905855,351.353826 19.6566067,348.450568 C20.3226279,345.547309 22.5535682,338.409208 23.9049696,338.409208 C25.256371,338.409208 24.1083664,342.19215 23.2435216,348.873214 C22.3786768,355.554278 21.2514463,363.746553 22.6850705,365.321143 C26.1949453,369.176136 26.8963039,361.55959 27.1168056,360.240776 C27.8854274,355.643673 28.4493782,340.779702 31.2939614,340.14854 C33.4787253,339.66378 34.1313217,363.859658 38.6031944,363.18425 C43.0750671,362.508842 36.9935372,336.903932 38.9269564,336.768929 C40.8603757,336.633926 43.7840505,351.908518 44.3881242,353.88724 C44.992198,355.865961 48.9739186,356.914343 48.4236667,353.88724 C44.3964844,331.732483 46.0079996,325.897429 45.1617169,316.801565 C40.7793504,315.245587 37.0601333,310.113981 24.2880442,309.612186 Z" id="Right-Hand"></path>
        </g>
    </g>
</svg>