<?xml version="1.0" encoding="UTF-8"?>
 <svg width="235px" height="639px" viewBox="0 0 235 639" version="1.1" xmlns="http://www.w3.org/2000/svg" xmlns:xlink="http://www.w3.org/1999/xlink">
    <title>Abdomen</title>
    <g id="Page-1" stroke="none" stroke-width="1" fill="none" fill-rule="evenodd" fill-opacity="0.25">
        <g id="Female/Front/Hover"   fill="#A0AEC0" stroke="#A1AFC2" stroke-width="2">
            <path d="M74.5322483,182.082859 C74.5322483,194.466108 80.7984648,221.639266 79.2928855,236.617404 C78.713779,242.378599 75.1051891,250.726191 72.3112904,257.749803 C76.2116182,261.680177 83.2257672,267.216231 90.0170588,270.88562 C101.617155,271.997299 113.963414,272.654133 121.923525,272.654133 C129.056265,272.654133 137.572665,272.365735 145.685104,271.643072 C150.874993,270.061125 161.955406,263.017968 165.436243,259.724067 C162.56922,252.315366 157.342828,244.823346 157.900846,236.617404 C158.429118,228.848877 160.283388,205.623707 165.919126,190.142527 C162.039564,195.492346 147.326749,195.492346 138.161947,187.889762 C134.693278,185.012358 131.721999,178.145931 122.952023,178.145931 C114.182046,178.145931 112.379561,183.934009 107.000977,187.889762 C102.435792,191.247289 86.1549833,199.388216 74.5322483,182.082859 Z" id="Abdomen"></path>
        </g>
    </g>
</svg>