<?xml version="1.0" encoding="UTF-8"?>
<svg width="235px" height="639px" viewBox="0 0 235 639" version="1.1" xmlns="http://www.w3.org/2000/svg" xmlns:xlink="http://www.w3.org/1999/xlink">
    <title>Female/Back/Active/Right Hand</title>
    <g id="Page-1" stroke="none" stroke-width="1" fill="none" fill-rule="evenodd" fill-opacity="0.25">
        <g id="Female/Back/Active " fill="#F56565" stroke="#F56565" stroke-width="2">
            <path d="M210.110402,307.734429 C208.156838,310.002009 203.04032,310.795893 200.701064,313.547466 C198.361807,316.29904 194.611543,319.192226 193.419146,320 C188.786941,323.138027 185.363209,325.481024 185.578447,327.746794 C185.793686,330.012563 190.96919,330.066643 194.968127,326.743197 C197.436568,324.69172 199.596207,320.294371 203.69815,321.836727 C205.188064,322.396944 201.09278,338.893182 200.701064,341.347364 C199.519328,348.751184 196.772856,354.136615 196.969924,355.550724 C197.26858,357.693814 200.146959,359.148762 201.440543,356.490771 C202.604265,352.213846 204.592264,349.278032 205.258285,346.374774 C205.924306,343.471515 207.61044,336.611178 208.961841,336.611178 C210.313243,336.611178 209.039494,340.369368 208.174649,347.050433 C207.309804,353.731497 205.839047,362.418573 207.272672,363.993162 C210.782546,367.848156 212.452944,360.98704 212.673446,359.668226 C213.442068,355.071123 214.167698,338.779702 217.012281,338.14854 C219.197045,337.66378 217.107809,361.664238 222.378473,361.145143 C227.649137,360.626049 222.711857,334.903932 224.645276,334.768929 C226.578695,334.633926 229.592178,350.587893 230.196252,352.566614 C230.800325,354.545336 233.934619,354.118899 233.384367,351.091796 C229.357185,328.937039 230.196252,320.451237 230.196252,310.839735 C225.813885,309.283757 222.882491,308.236225 210.110402,307.734429 Z" id="Right-Hand" transform="translate(209.508851, 336.444794) scale(-1, 1) translate(-209.508851, -336.444794) "></path>
        </g>
    </g>
</svg>