<?xml version="1.0" encoding="UTF-8"?>
<svg width="235px" height="639px" viewBox="0 0 235 639" version="1.1" xmlns="http://www.w3.org/2000/svg" xmlns:xlink="http://www.w3.org/1999/xlink">
    <title>Male/Front/Hover</title>
    <g id="Male/Front/Hover" stroke="none" stroke-width="1" fill="none" fill-rule="evenodd" fill-opacity="0.25">
        <path d="M64,139.529607 C63.3830243,134.160619 63.6136073,130.553758 64.6917488,128.709024 C68.0695309,122.929534 75.57963,120.324219 78.7808501,118.738583 C85.8816973,115.221375 92.7837353,115.36922 97.1559251,115.27188 C102.548581,115.151821 114.583252,120.688672 125.222954,120.688672 C132.28107,120.688672 133.14374,117.717292 142.258617,116.273116 C148.577891,115.27188 149.318216,115.27188 157.087652,116.273116 C175.215003,118.609162 180.655657,135.254408 180.912403,135.993939 C181.390637,137.371441 180.318419,163.975134 163.026577,171.552177 C154.286203,175.382086 141.267065,170.862861 129.759156,169.579543 C117.400959,168.201405 106.717085,169.951734 102.829197,171.552177 C88.1583938,177.591386 78.0054283,169.699372 72.4824789,164.963597 C66.9595295,160.227822 67.6288522,155.623207 66.5074603,151.982964 C65.7598656,149.556136 64.9240455,145.405017 64,139.529607 Z" id="Chest" stroke="#A1AFC2" stroke-width="2" fill="#A0AEC0"></path>
        <path d="M99.5211119,85.5456698 C95.1974974,89.0031449 82.1130539,95.3074318 78.1291828,98.315571 C81.7789105,99.5590499 87.3099172,103.07557 92.339245,103.673185 C100.289569,104.617891 107.140968,102.453083 112.216979,104.308878 C116.24861,105.782846 121.523903,108.749434 124.746713,108.749434 C128.892146,108.749434 131.651568,104.838101 135.722721,104.308878 C144.328046,104.838101 147.459131,104.838101 166.041332,98.9250413 C166.041332,98.1198596 159.847265,93.6600691 147.459131,85.5456698 C145.690319,84.4466985 144.873086,82.2140566 145.007432,78.8477441 C145.208951,73.7982755 143.201299,77.2017683 139.966661,80.6553518 C136.732024,84.1089352 131.699017,88.39096 129.344575,89.0031449 C126.990133,89.6153298 121.842975,89.2868296 116.726209,89.2868296 C113.315032,89.2868296 109.707483,86.183994 105.903561,79.9783228 C104.537363,78.1164721 103.681269,77.1855467 103.335277,77.1855467 C102.81629,77.1855467 104.855893,82.1898296 99.5211119,85.5456698 Z" id="Neck" stroke="#A1AFC2" stroke-width="2" fill="#A0AEC0"></path>
        <path d="M25.2370976,297.185702 C24.3921802,297.75024 18.7470519,302.721479 16.1844003,306.458131 C14.4759659,308.949233 12.6601161,312.906121 10.7368507,318.328796 C8.87553786,321.025662 7.53080861,322.793304 6.70266297,323.631723 C3.38976936,326.985713 1.34217264,327.120196 1.34217264,327.120196 C1.34217264,327.120196 0.572284194,328.978264 1.34217264,329.987284 C2.09700127,330.976567 5.13957814,331.124244 5.36402572,331.124244 C5.57811124,331.124244 7.43444728,331.001683 10.2937377,329.418163 C11.0787337,328.98342 12.3739788,327.973965 14.179473,326.389797 C13.6923798,329.655338 13.3057918,332.399039 13.019709,334.620901 C11.7251197,344.67533 11.4277563,343.712561 10.9895812,348.163774 C10.5514062,352.614987 10.4435624,355.914834 10.7368507,357.81138 C11.2583413,361.183595 14.4169151,360.543231 15.409945,359.249242 C16.4029749,357.955254 16.4724686,356.661634 17.3714473,352.727356 C18.2704261,348.793079 18.3965533,348.520591 19.1261785,344.577949 C19.8558037,340.635308 20.4027548,334.385298 20.9508148,333.012502 C21.3802971,332.468533 22.5077505,332.06279 23.0138947,333.012502 C23.0138947,336.085691 21.595989,340.70022 20.7370546,350.068391 C19.8781201,359.436561 19.3925794,362.5942 20.0971736,364.919514 C20.8017678,367.244829 23.8365394,366.949467 25.2370976,364.919514 C26.8752365,362.358051 26.8752365,353.351366 27.630281,346.623357 C28.3853255,339.895349 28.5977301,335.208464 29.1479341,334.891027 C29.698138,334.573589 30.0070657,334.532405 30.7498815,334.891027 C31.3539285,335.182653 30.9804046,339.38193 30.532971,345.158613 C29.8210231,354.350363 30.1229313,351.30277 29.6672824,358.485278 C29.2116335,365.667786 34.5648909,363.608662 35.215476,362.050452 C35.8660611,360.492241 35.528171,359.746735 36.5662124,351.114139 C37.6042537,342.481542 38.1777416,334.079105 38.6077341,333.839634 C39.0377265,333.600162 39.441334,333.600162 40.004075,333.839634 C40.566816,334.079105 39.7292012,345.420401 39.7292012,348.856708 C39.7292012,352.293015 39.3419061,353.479062 40.004075,354.351765 C40.6662439,355.224467 42.9811514,355.657697 43.7727133,353.386348 C44.6221865,347.101069 45.7041484,339.08178 46.0884996,336.516418 C46.3447337,334.806177 46.7085546,332.848898 47.1799622,330.644579 C47.6678868,325.141613 47.9118491,321.036352 47.9118491,318.328796 C47.9118491,314.267461 46.5170361,310.616952 46.0884996,306.458131 C45.6599632,302.299311 46.2549741,299.028668 45.7793279,297.633304 C45.3036816,296.237939 37.5692664,297.264112 33.9706995,297.185702 C30.3721325,297.107291 26.0820151,296.621164 25.2370976,297.185702 Z" id="Right-Hand" stroke="#A1AFC2" stroke-width="2" fill="#A0AEC0"></path>
        <path d="M211.044598,302 C210.017963,302.447602 205.639787,306.679902 203.077136,310.416554 C201.368702,312.907656 199.521091,316.117009 197.534304,320.044613 C195.729787,324.316569 194.392106,326.818201 193.52126,327.549509 C188.446687,331.810966 186.823867,333.66053 187.781484,335.356627 C188.739101,337.052725 191.411624,336.52106 195.658657,334.984355 C197.534304,334.305689 200.976926,330.413332 200.976926,331.204095 C200.976926,331.994858 199.912227,340.013623 199.483103,343.346417 C198.188514,353.400845 197.318417,360.70531 197.534304,362.625679 C197.861482,365.536006 202.115756,367.715588 203.532876,364.106022 C204.839115,355.601921 205.07712,353.238475 205.806746,349.295833 C206.536371,345.353192 207.295648,340.300624 207.844017,338.945747 C208.392386,337.59087 209.891664,337.990891 210.210839,338.41446 C210.530015,338.838029 209.148506,342.126759 208.20107,351.199682 C207.253634,360.272605 206.563198,367.864146 207.425043,370.872611 C209.958071,374.197981 213.208775,371.314394 213.450334,369.523437 C214.292358,363.280545 214.318491,355.500832 214.811816,352.265105 C215.715453,346.338135 215.55274,340.808734 216.096351,340.196887 C216.639962,339.585041 218.091096,339.585041 218.091096,340.196887 C218.091096,344.001603 217.600006,348.540007 217.600006,349.977032 C217.600006,359.170184 216.839334,363.647442 217.600006,366.960682 C218.360678,370.273922 222.531389,370.221512 222.984164,366.124031 C223.286013,363.392376 223.520809,360.097371 223.68855,356.239016 C224.315823,345.129087 224.776491,339.364664 225.070555,338.945747 C225.51165,338.317371 226.75775,338.714159 227.014142,339.30408 C227.270534,339.894001 226.35238,355.369137 227.014142,358.056252 C227.675904,360.743366 230.71878,359.698963 231.454328,356.50542 C232.079701,350.355708 232.564394,343.813258 232.908408,336.87807 C233.323605,330.747691 233.531204,326.328723 233.531204,323.621167 C233.531204,320.91361 233.323605,317.493585 232.908408,313.361092 C232.264517,306.383833 231.589663,302.746003 230.883846,302.447602 C229.82512,302 223.379258,302.07841 219.780691,302 C216.182124,301.92159 212.071234,301.552398 211.044598,302 Z" id="Left-Hand" stroke="#A1AFC2" stroke-width="2" fill="#A0AEC0" transform="translate(210.525737, 337.090613) scale(-1, 1) translate(-210.525737, -337.090613) "></path>
        <path d="M34.3442488,204.203379 C33.3145896,203.694762 30.324613,214.531549 29.9388849,219.452792 C29.5531568,224.374035 29.2462624,228.623884 29.1485999,239.637146 C29.0509375,250.650408 28.9338633,256.276525 28.5567129,261.602754 C28.1795625,266.928983 27.4992381,278.709665 28.5567129,280.362711 C36.8408319,281.179913 47.8988432,281.559386 48.7666346,280.362711 C49.6344261,279.166037 49.8257975,276.583885 51.9919146,270.712412 C54.1580317,264.840939 52.8560736,267.998153 56.8864095,256.599515 C60.9167453,245.200876 62.9111385,239.798462 63.6602682,233.73065 C64.409398,227.662838 64.8529421,225.449412 63.376956,223.451684 C62.6767796,222.504005 56.9456144,220.005237 54.3621046,218.287508 C49.8245384,215.270562 47.261088,212.495368 46.5962717,212.495368 C45.9314554,212.495368 41.336644,220.380875 39.2873492,218.921946 C37.2380545,217.463017 35.2180174,204.634991 34.3442488,204.203379 Z" id="Right-Forearm" stroke="#A1AFC2" stroke-width="2" fill="#A0AEC0"></path>
        <path d="M180.072545,209.321047 C179.036575,211.569405 176.58508,216.040754 176.321608,225.772733 C176.058136,235.504713 175.603077,246.397122 177.754036,263.176688 C179.904995,279.956253 177.717186,283.527626 178.959193,283.684984 C187.44854,284.76056 200.169342,283.590024 200.169342,282.808044 C200.169342,281.08864 201.441726,276.811881 202.792189,271.882155 C204.142653,266.952429 205.097916,263.176688 208.251756,252.124459 C211.405596,241.07223 211.507481,218.766759 210.630617,218.766759 C210.158962,218.766759 210.369016,222.483838 205.77301,224.599127 C202.38142,226.160089 193.990231,217.14808 193.030767,217.14808 C192.320308,217.14808 187.662539,223.537095 186.315103,223.537095 C184.967667,223.537095 180.612653,208.148857 180.072545,209.321047 Z" id="Left-Forearm" stroke="#A1AFC2" stroke-width="2" fill="#A0AEC0" transform="translate(193.598102, 246.687820) scale(-1, 1) translate(-193.598102, -246.687820) "></path>
        <path d="M90.6699562,554.751863 C90.6699562,553.399686 108.313788,554.364337 111.309975,554.364337 C113.462725,554.364337 113.331791,555.098544 113.331791,558.159156 C113.331791,562.037546 115.363552,568.734448 116.2874,571.178268 C116.860635,572.694624 117.5,578.005285 117.5,579.125612 C117.5,580.245939 112.972146,577.851633 109.792598,577.851633 C106.61305,577.851633 103.465142,578.130576 100.675585,579.125612 C97.8860279,580.120648 94.3081813,584.802485 93.8936631,583.048618 C93.479145,581.294751 92.6707684,570.599209 92.3191823,566.521955 C91.9675962,562.444701 90.6699562,556.10404 90.6699562,554.751863 Z" id="Right-Ankle" stroke="#A1AFC2" stroke-width="2" fill="#A0AEC0"></path>
        <path d="M125.658584,555.235362 C125.658584,554.030886 146.411103,553.503486 146.953612,554.030886 C147.49612,554.558287 147.49612,560.616026 147.970113,563.090219 C148.17132,564.1405 149.74114,569.084234 150.65325,572.936482 C151.553263,576.737638 151.79728,579.452925 151.79728,579.737558 C151.79728,580.310648 148.981109,577.975764 145.724175,577.444117 C142.467241,576.91247 141.100234,576.98242 136.660293,579.164467 C132.220352,581.346515 128.649867,587.928869 128.298281,585.151931 C127.946695,582.374994 127.309404,572.811701 126.957818,568.734448 C126.799411,566.89744 126.832996,563.947257 126.573781,561.449453 C126.257665,558.40336 125.658584,555.897161 125.658584,555.235362 Z" id="Left-Ankle" stroke="#A1AFC2" stroke-width="2" fill="#A0AEC0" transform="translate(138.727932, 569.825550) scale(-1, 1) translate(-138.727932, -569.825550) "></path>
        <path d="M65.0339215,149.669722 C64.7890092,161.090815 65.1493611,170.204289 66.1149771,177.010145 C66.8711492,182.339798 68.9284588,189.708135 71.2681522,199.70843 C71.7001829,201.555012 72.3031996,204.762526 73.0772023,209.330974 C73.6907137,212.239245 74.1541703,215.134962 74.4675721,218.018122 C74.7809739,220.901283 74.7809739,224.812466 74.4675721,229.751671 C73.4666934,235.347639 72.7347387,239.317944 72.271708,241.662586 C71.5771619,245.179549 104.483516,259.60026 121.952023,259.60026 C139.420529,259.60026 168.598922,245.048669 168.598922,242.458574 C168.598922,232.270322 167.178453,224.898516 167.813561,219.57303 C168.372878,214.883067 168.724256,212.219629 170.85501,204.634991 C171.282532,203.113183 172.326204,200.126483 173.986026,195.674891 C176.35699,187.84821 177.854022,181.626628 178.477123,177.010145 C179.100224,172.393661 179.100224,164.664219 178.477123,153.821817 C174.22377,163.891866 169.781986,169.654492 165.151771,171.109695 C149.651452,175.981198 128.982155,170.059699 120.109818,169.660791 C117.448482,169.541135 112.78323,170.024685 108.189446,171.109695 C102.463622,172.462083 96.4769897,174.480947 90.3036172,174.320371 C84.5167389,174.169848 80.2463709,170.353533 75.2500039,168.129895 C71.2224439,166.337425 67.817083,160.184034 65.0339215,149.669722 Z" id="Abdomen" stroke="#A1AFC2" stroke-width="2" fill="#A0AEC0"></path>
        <path d="M41.0404186,137.95513 C42.2795363,123.236671 45.3300376,120.555877 48.3395907,116.195635 C52.2130772,110.583725 60.5523407,105.103112 62.5134685,106.181983 C71.0796464,110.894474 72.55302,111.593066 87.5279381,115.269955 C81.5948807,117.351925 65.6274059,123.148931 64.1869899,130.699064 C62.7465739,138.249198 51.9181075,149.761081 44.0247047,158.875664 C41.2823049,164.496471 39.8013009,152.673588 41.0404186,137.95513 Z" id="Right-Shoulder" stroke="#A1AFC2" stroke-width="2" fill="#A0AEC0"></path>
        <path d="M157.207801,141.551574 C157.926199,129.710024 161.352656,123.125687 162.929227,120.314951 C167.55107,112.075055 176.103829,109.662758 176.333985,109.662758 C179.118878,109.662758 183.447899,111.152544 188.540738,112.174379 C194.9162,113.453561 200.776508,114.363067 204.753218,115.26987 C197.930109,118.172485 191.533534,118.172485 182.92057,130.687017 C174.307606,143.20155 172.507079,147.499945 170.059589,150.563163 C167.6121,153.62638 160.733241,167.402143 159.964176,163.57597 C159.195111,159.749797 156.489404,153.393124 157.207801,141.551574 Z" id="Left-Shoulder" stroke="#A1AFC2" stroke-width="2" fill="#A0AEC0" transform="translate(180.920435, 136.952340) scale(-1, 1) translate(-180.920435, -136.952340) "></path>
        <path d="M74.2510113,419.514005 C76.2050375,437.660102 76.8038719,449.895118 76.0475144,456.219053 C74.9129782,465.704954 90.9899593,465.015777 94.1941934,465.015777 C97.3984275,465.015777 105.854644,466.163715 109.918445,459.566268 C109.918445,455.06026 111.407489,447.426428 112.83875,441.810512 C113.792924,438.066568 114.558543,430.104211 115.135607,417.923441 C109.206675,422.777106 102.392575,425.203939 94.6933093,425.203939 C86.9940434,425.203939 80.1799441,423.307294 74.2510113,419.514005 Z" id="Right-Knee" stroke="#A1AFC2" stroke-width="2" fill="#A0AEC0"></path>
        <path d="M123.251011,421.514005 C125.205038,439.660102 125.803872,451.895118 125.047514,458.219053 C123.912978,467.704954 139.989959,467.015777 143.194193,467.015777 C146.398427,467.015777 154.854644,468.163715 158.918445,461.566268 C158.918445,457.06026 160.407489,449.426428 161.83875,443.810512 C162.792924,440.066568 163.558543,432.104211 164.135607,419.923441 C158.206675,424.777106 151.392575,427.203939 143.693309,427.203939 C135.994043,427.203939 129.179944,425.307294 123.251011,421.514005 Z" id="Left-Knee" stroke="#A1AFC2" stroke-width="2" fill="#A0AEC0" transform="translate(143.693309, 443.507861) scale(-1, 1) translate(-143.693309, -443.507861) "></path>
        <path d="M27.9912332,280.382794 C26.1411463,284.579692 26.0498773,291.084729 25.4641451,296.895158 C34.1847522,297.210577 45.5071539,296.895158 45.5071539,296.895158 C45.5071539,296.895158 47.3008558,287.973401 48.5515664,280.675977 C41.9074633,280.861754 37.4060934,281.59706 27.9912332,280.382794 Z" id="Right-Wrist" stroke="#A1AFC2" stroke-width="2" fill="#A0AEC0"></path>
        <path d="M70.4681284,254.064498 C67.072501,262.810983 60.2937638,308.222899 59.7080316,314.033328 C63.2187645,309.91401 78.1433317,287.616213 87.0434796,277.993265 C89.0689395,273.77952 92.3756343,266.383261 91.1412771,252.33196 C87.0434796,250.763168 75.5589503,245.938649 72.1252859,242.157221 C71.3901307,245.273862 71.4568191,251.51782 70.4681284,254.064498 Z" id="Right-Hip" stroke="#A1AFC2" stroke-width="2" fill="#A0AEC0"></path>
        <path d="M153.290291,253.984669 C153.290291,265.849805 146.908365,305.302574 146.322633,311.113003 C149.833365,306.993685 166.409985,283.179497 170.265803,279.993265 C172.799718,275.376771 175.944044,268.03597 174.709687,253.984669 C170.61189,252.415877 155.908933,246.436719 152.475269,242.655291 C151.812912,245.739555 153.290291,251.455181 153.290291,253.984669 Z" id="Left-Hip" stroke="#A1AFC2" stroke-width="2" fill="#A0AEC0" transform="translate(160.654642, 276.884147) scale(-1, 1) translate(-160.654642, -276.884147) "></path>
        <path d="M188.406244,283.659976 C187.464537,289.763031 186.729079,295.757642 187.358275,301.782467 C200.749413,301.782467 207.523192,302.297958 207.523192,302.297958 C207.523192,302.297958 209.092885,292.135046 210.130925,283.179497 C202.60923,284.126819 195.623473,284.415407 188.406244,283.659976 Z" id="Left-Wrist" stroke="#A1AFC2" stroke-width="2" fill="#A0AEC0" transform="translate(198.627408, 292.738728) scale(-1, 1) translate(-198.627408, -292.738728) "></path>
        <path d="M96.2687279,29.8272255 C95.0459809,14.5618368 109.003952,3.10678876 123.995218,3.10678876 C137.411974,3.10678876 149.179066,8.80823094 150.376435,29.8272255 C150.376435,36.4447423 150.376435,39.7911324 150.376435,39.8663958 C154.381131,37.6680638 156.383478,38.8886598 156.383478,43.5281837 C156.383478,50.4874696 155.010409,50.6835385 152.435787,56.6005781 C150.719373,60.5452712 148.935222,61.2836439 147.083334,58.8156962 C146.011742,68.6293745 145.310063,74.0551249 144.978299,75.0929475 C144.741532,75.8335997 141.688625,78.6658682 137.884021,82.8479974 C136.790364,84.0501759 134.768089,85.7035255 131.817194,87.8080463 C130.489939,88.7539533 128.894488,89.2269069 127.030842,89.2269069 C125.167195,89.2269069 121.990248,89.2269069 117.5,89.2269069 C115.100556,89.3936496 112.724467,88.2652101 110.371734,85.8415882 C108.019001,83.4179663 105.084594,79.2555859 101.568512,73.354447 C100.372559,71.0741733 99.7745831,68.6442904 99.7745831,66.0647985 C99.7745831,63.4853066 99.6380036,61.5886471 99.3648445,60.37482 C97.1638143,60.5481924 95.7241931,59.2083705 95.0459809,56.3553544 C94.0286627,52.0758303 91.1444884,44.9143102 91.6704698,41.0402175 C92.0211241,38.457489 93.5538768,38.330881 96.2687279,40.6603933 C96.2687279,41.3756389 96.2687279,37.764583 96.2687279,29.8272255 Z" id="Head" stroke="#A1AFC2" stroke-width="2" fill="#A0AEC0"></path>
        <path d="M75.8452627,460.205813 C72.0546994,482.940629 74.0198694,503.183603 81.7407725,520.934733 C86.4418683,535.516403 89.4182629,546.548454 90.6699562,554.030886 C95.5656917,553.894811 102.513883,553.826773 111.51453,553.826773 C114.471697,553.826773 110.347967,559.791084 113.351798,513.787674 C113.385732,513.615344 113.418007,513.439977 113.451101,513.265029 C115.812137,500.783569 114.692709,483.097163 110.092815,460.205813 C107.047714,462.72917 104.4396,464.181995 102.268474,464.564286 C96.8733798,465.514252 88.6720567,464.564286 86.0430652,464.564286 C82.1571135,464.564286 78.757846,463.111462 75.8452627,460.205813 Z" id="Right-Lower-Leg" stroke="#A1AFC2" stroke-width="2" fill="#A0AEC0"></path>
        <path d="M128.547514,461.974446 C128.547514,461.974446 122.965102,483.519118 126.993095,516.455441 C131.021088,549.391763 129.207258,553.826773 129.943877,553.826773 C130.680496,553.826773 138.727932,553.446541 151.79728,554.867936 C151.79728,554.867936 155.236398,538.28322 157.976528,526.094161 C160.716659,513.905102 169.697079,497.046344 162.835504,461.031041 C159.585441,465.063668 156.755541,466.243428 152.922373,466.590982 C147.393549,467.092281 142.597553,467.652759 137.805673,467.092281 C131.603856,466.366892 128.547514,461.974446 128.547514,461.974446 Z" id="Left-Lower-Leg" stroke="#A1AFC2" stroke-width="2" fill="#A0AEC0"></path>
        <path d="M63.646994,223.10263 C62.6426414,222.764626 57.8758585,220.757541 53.9952535,218.075167 C50.2520461,215.487765 47.3980788,212.576703 46.9248609,212.576703 C45.9610554,212.576703 42.1049659,219.224316 39.9862509,219.224316 C37.8675358,219.224316 35.1762096,207.369643 34.8380501,204.634991 C34.3245798,202.22831 34.9659357,198.316679 36.7621179,192.900099 C48.7132352,190.670135 58.50985,194.872449 66.1519623,205.507041 C63.1146708,216.1466 65.6201387,223.76667 63.646994,223.10263 Z" id="Right-Elbow" stroke="#A1AFC2" stroke-width="2" fill="#A0AEC0"></path>
        <path d="M205.355241,219.466644 C201.003512,226.038719 199.253138,225.547561 195.372533,222.865186 C191.629325,220.277784 188.306096,217.14808 187.832878,217.14808 C186.869073,217.14808 181.802301,223.537095 181.117214,223.537095 C180.432127,223.537095 178.159574,217.14808 174.98665,209.225273 C175.480709,204.634991 176.447503,202.32046 176.813737,197.759421 C187.851617,195.810586 201.003512,200.197916 207.011665,203.84787 C206.586745,209.020921 206.436377,217.83389 205.355241,219.466644 Z" id="Left-Elbow" stroke="#A1AFC2" stroke-width="2" fill="#A0AEC0" transform="translate(190.999158, 211.002296) scale(-1, 1) translate(-190.999158, -211.002296) "></path>
        <path d="M62.8439132,106.045087 C61.9046009,105.264811 64.5076448,104.205094 68.0088245,102.84462 C69.9100737,102.10584 77.4672955,98.315571 78.7217273,98.315571 C85.6154373,100.434006 85.9052309,105.563536 105.350166,103.510262 C114.460544,102.529693 118.41935,107.193856 120.618811,108.062796 C122.818272,108.931736 124.773548,109.005804 126.741693,108.618224 C128.709837,108.230645 132.030524,104.260497 137.825239,104.260497 C143.619954,104.260497 144.245011,106.146043 165.643498,98.9526737 C166.682918,98.9526737 173.339287,102.311405 185.612606,109.028867 C172.331738,112.591587 162.588695,114.67195 156.383478,115.269955 C147.075653,116.166963 150.061505,113.316205 129.153642,120.304929 C125.321106,121.359667 117.63969,120.342438 106.109392,117.253241 C101.458597,115.293231 95.2647788,114.632136 87.5279381,115.269955 C74.0350509,112.047181 67.7680153,110.703631 62.8439132,106.045087 Z" id="Clavicle" stroke="#A1AFC2" stroke-width="2" fill="#A0AEC0"></path>
        <path d="M93.673096,592.300409 C92.4168924,600.600606 87.3993265,603.429874 86.6860656,606.207454 C85.9728047,608.985035 85.9204044,615.048722 87.8110804,615.048722 C92.9688007,617.073246 116.61731,619.759775 118.978074,615.461727 C119.930641,614.041445 119.380795,606.677314 118.5,599.101838 C117.448918,590.061767 118.016532,580.586371 117.5,580.062403 C116.860453,579.413648 111.402892,578.805506 109.123707,578.405322 C106.358039,577.91972 104.953442,577.793094 100.675585,579.125612 C96.3977284,580.45813 94.9691904,582.867102 94.312667,583.438009 C93.6561437,584.008915 94.9292995,584.000212 93.673096,592.300409 Z" id="Right-Foot" stroke="#A1AFC2" stroke-width="2" fill="#A0AEC0"></path>
        <path d="M134.015945,594.183543 C132.759741,602.48374 128.572382,603.643815 126.559449,606.506847 C124.546517,609.369878 124.084862,615.790834 127.966789,616.352738 C132.350282,616.987244 139.655025,616.94032 144.881099,616.952965 C147.378295,616.959006 148.904377,617.003313 150.830881,616.952965 C153.488987,616.883496 156.216415,616.002974 157.053933,614.916874 C158.435551,613.125181 158.864118,600.79891 158.377605,591.059784 C158.075204,585.006254 158.316825,580.10921 157.950447,579.737558 C157.3109,579.088803 152.090467,575.634212 145.48107,578.064851 C138.871674,580.49549 136.204357,585.765306 135.082208,585.824326 C133.960058,585.883346 135.272148,585.883346 134.015945,594.183543 Z" id="Left-Foot" stroke="#A1AFC2" stroke-width="2" fill="#A0AEC0" transform="translate(141.804516, 597.093051) scale(-1, 1) translate(-141.804516, -597.093051) "></path>
        <path d="M91.1412771,252.33196 C91.1412771,254.590907 91.4975817,257.07064 91.1412771,262.493374 C90.7581523,268.324296 88.5677428,274.86832 87.0434796,277.993265 C94.4289934,286.184554 96.0508542,296.041354 99.6328921,303.141808 C102.692317,309.206319 106.63982,315.032221 112.212439,321.860685 C115.851075,324.833017 121.813889,324.086853 123.100719,322.917617 C127.966113,318.496832 132.414617,312.132355 136.766414,304.882546 C141.225725,297.453625 146.082895,284.118314 151.04348,279.993265 C147.736423,275.434295 146.082895,266.837763 146.082895,254.203672 C137.371317,257.801397 129.154957,259.60026 121.433814,259.60026 C109.8521,259.60026 97.5626943,255.475221 91.1412771,252.33196 Z" id="Groin" stroke="#A1AFC2" stroke-width="2" fill="#A0AEC0"></path>
        <path d="M176.480668,164.670323 C174.678096,168.208364 175.519072,175.082288 174.805811,180.470704 C174.09255,185.859121 173.006002,191.845209 173.990002,197.280108 C179.027767,197.280108 180.376683,196.79298 185.145117,197.280108 C195.381016,198.325776 203.756569,204.729906 203.756569,203.84787 C203.756569,201.908467 205.487753,199.979627 205.086123,197.280108 C197.450543,175.807825 199.79877,159.832337 199.79877,152.826264 C197.748415,141.992033 198.259886,136.497412 196.7839,134.244073 C187.643768,147.750927 182.077254,158.515257 178.99502,163.273094 C177.827172,165.075824 176.975983,163.698131 176.480668,164.670323 Z" id="Left-Arm" stroke="#A1AFC2" stroke-width="2" fill="#A0AEC0" transform="translate(189.371610, 169.087538) scale(-1, 1) translate(-189.371610, -169.087538) "></path>
        <path d="M42.3281881,160.994162 C40.9544441,167.393336 40.5980286,169.970926 39.2552212,175.713569 C37.9124138,181.456212 37.2179589,187.230782 37.2179589,193.102065 C41.6208684,191.557448 44.9623833,191.557448 50.4093921,193.102065 C60.5768602,195.98527 66.1519623,206.389077 66.1519623,205.507041 C66.1519623,203.567638 68.1149771,200.355208 68.1149771,193.102065 C68.1149771,188.266636 67.7567601,184.520986 67.040326,181.865113 C65.6531727,174.369667 64.959596,168.050951 64.959596,162.908967 C64.959596,155.195991 64.0629834,135.123667 63.663157,133.17354 C53.9094861,151.29196 42.9168423,158.344872 42.3281881,160.994162 Z" id="Right-Arm" stroke="#A1AFC2" stroke-width="2" fill="#A0AEC0"></path>
        <path d="M59.7080316,314.033328 C58.9210005,321.091471 50.4459395,335.195316 70.9470426,402.642402 C72.9643437,407.584609 74.0656666,413.208477 74.2510113,419.514005 C90.535192,427.246722 104.002301,426.716534 114.65234,417.923441 C116.063326,416.917554 114.65234,407.710409 114.65234,401.443329 C114.65234,395.176249 113.663014,387.239474 115.922529,370.527922 C118.5,338.250589 114.575003,326.664195 113.017792,323.217848 C111.460581,319.771502 103.836784,312.256702 99.6328921,303.141808 C95.4289999,294.026915 95.0041328,286.985792 87.8226983,278.290744 C86.2415648,276.376359 83.1681424,283.179497 59.7080316,314.033328 Z" id="Right-Leg" stroke="#A1AFC2" stroke-width="2" fill="#A0AEC0"></path>
        <path d="M121.507089,312.487877 C120.720058,319.546019 113.72698,342.828256 129.353823,404.642402 C131.371124,409.584609 132.472447,415.208477 132.657792,421.514005 C148.941972,429.246722 162.409082,428.716534 173.05912,419.923441 C174.470106,418.917554 173.627847,409.650273 173.627847,403.383193 C173.627847,397.116113 173.894277,389.110311 176.153792,372.398759 C178.731263,340.121426 176.153792,328.27259 173.627847,323.944448 C171.101901,319.616305 163.295278,313.54586 159.091386,304.430967 C154.887494,295.316073 152.40681,289.771999 146.032946,280.627758 C144.508534,278.440767 144.9672,281.634046 121.507089,312.487877 Z" id="Left-Leg" stroke="#A1AFC2" stroke-width="2" fill="#A0AEC0" transform="translate(148.246870, 353.511477) scale(-1, 1) translate(-148.246870, -353.511477) "></path>
    </g>
</svg>