<?xml version="1.0" encoding="UTF-8"?>
 <svg width="235px" height="639px" viewBox="0 0 235 639" version="1.1" xmlns="http://www.w3.org/2000/svg" xmlns:xlink="http://www.w3.org/1999/xlink">
    <title>Clavicle</title>
    <g id="Page-1" stroke="none" stroke-width="1" fill="none" fill-rule="evenodd" fill-opacity="0.25">
        <g id="Female/Front/Active"   fill="#F56565" stroke="#F56565" stroke-width="2">
            <path d="M66.2792856,116.665803 C71.7411061,114.633557 81.6516191,112.244574 86.8135554,110.747872 C91.2571454,113.01646 94.2119185,113.171261 106.350166,112.510262 C115.460544,111.529693 119.41935,116.193856 121.618811,117.062796 C123.818272,117.931736 125.773548,118.005804 127.741693,117.618224 C129.709837,117.230645 133.030524,113.260497 138.825239,113.260497 C144.619954,113.260497 149.490751,113.260785 151.690419,112.244574 C152.729838,112.244574 160.090396,115.258868 173.772091,121.287455 C169.051566,122.677783 163.588695,123.67195 157.383478,124.269955 C148.075653,125.166963 151.061505,122.316205 130.153642,129.304929 C126.321106,130.359667 118.63969,129.342438 107.109392,126.253241 C102.458597,124.293231 96.2647788,123.632136 88.5279381,124.269955 C75.0350509,121.047181 70.7104949,118.942581 66.2792856,116.665803 Z" id="Clavicle"></path>
        </g>
    </g>
</svg>