<?xml version="1.0" encoding="UTF-8"?>
 <svg width="235px" height="639px" viewBox="0 0 235 639" version="1.1" xmlns="http://www.w3.org/2000/svg" xmlns:xlink="http://www.w3.org/1999/xlink">
    <title>Neck</title>
    <g id="Page-1" stroke="none" stroke-width="1" fill="none" fill-rule="evenodd" fill-opacity="0.25">
        <g id="Female/Front/Active"   fill="#F56565" stroke="#F56565" stroke-width="2">
            <path d="M100.017954,104.283541 C95.6943392,107.741016 93.4637196,108.326333 86.8135554,110.747872 C90.4632831,111.991351 88.3099172,112.07557 93.339245,112.673185 C101.289569,113.617891 108.140968,111.453083 113.216979,113.308878 C117.24861,114.782846 122.523903,117.749434 125.746713,117.749434 C129.892146,117.749434 132.651568,113.838101 136.722721,113.308878 C145.328046,113.838101 149.202343,113.308878 152.160103,112.241805 C148.484127,110.747872 143.832837,110.166254 139.77052,104.012188 C136.193345,98.593069 140.566515,90.894568 141.264858,89.5724173 C140.235213,90.541855 140.79681,89.7181208 137.562172,93.1717042 C134.327534,96.6252876 132.699017,97.39096 130.344575,98.0031449 C127.990133,98.6153298 122.842975,98.2868296 117.726209,98.2868296 C114.315032,98.2868296 111.304783,96.0020403 108.69546,91.4324617 C106.904276,88.5906544 105.602477,86.430663 104.79006,84.9524877 C105.026047,87.8616543 105.352735,100.927701 100.017954,104.283541 Z" id="Neck"></path>
        </g>
    </g>
</svg>