<?xml version="1.0" encoding="UTF-8"?>
 <svg width="235px" height="639px" viewBox="0 0 235 639" version="1.1" xmlns="http://www.w3.org/2000/svg" xmlns:xlink="http://www.w3.org/1999/xlink">
    <title>Right Shoulder</title>
    <g id="Page-1" stroke="none" stroke-width="1" fill="none" fill-rule="evenodd" fill-opacity="0.25">
        <g id="Male/Back/Focus"   fill="#4299E1" stroke="#4299E1" stroke-width="2">
            <path d="M126.31559,120.566753 C121.402209,125.952462 120.778423,131.460471 119.817194,139.829855 C131.457013,144.084927 146.824641,143.767135 152.137787,134.209219 C153.433265,132.906287 158.00011,127.15167 167.849635,125.933466 C179.576491,124.483071 190.406903,129.396927 191.584889,129.396927 C192.039633,122.215232 192.277144,120.781243 193.175648,108.345554 C194.048826,99.102822 195.308613,90.5136453 195.808613,86.8080463 C194.048826,85.6378702 193.434972,85.3979055 190.668206,82.8097722 C188.351535,80.6426736 186.877335,78.9658403 182.572559,72.990586 C184.465483,87.5852153 182.810753,88.6806575 154.530053,104.745659 C147.882118,108.522053 141.97538,103.401573 126.31559,120.566753 Z" id="Right-Shoulder"  ></path>
        </g>
    </g>
</svg>