<?xml version="1.0" encoding="UTF-8"?>
 <svg width="235px" height="639px" viewBox="0 0 235 639" version="1.1" xmlns="http://www.w3.org/2000/svg" xmlns:xlink="http://www.w3.org/1999/xlink">
    <title>Left Shoulder</title>
    <g id="Page-1" stroke="none" stroke-width="1" fill="none" fill-rule="evenodd" fill-opacity="0.25">
        <g id="Male/Back/Hover"   fill="#A0AEC0" stroke="#A1AFC2" stroke-width="2">
            <path d="M37.653576,123.987586 C32.740195,129.373295 31.9208107,133.243007 30.9595817,141.612391 C42.5994002,145.867463 59.3542775,145.867463 64.6674233,136.309546 C65.4649995,136.309546 69.757433,127.15167 79.6069572,125.933466 C91.3338136,124.483071 104.495352,129.419896 105.673338,129.419896 C106.128082,122.238201 106.443705,114.521353 106.466157,107.717738 C106.495781,98.740594 106.443705,91.6761619 106.1373,88.2430068 C105.004404,88.2430068 104.079492,88.6430441 100.249685,86.330563 C96.7986933,84.2468151 93.7092825,79.8853907 89.5685117,72.354447 C91.4614357,86.9490763 95.4111507,90.1588595 67.1304505,106.223861 C60.4825156,110.000255 53.313366,106.822405 37.653576,123.987586 Z" id="Left-Shoulder"></path>
        </g>
    </g>
</svg>