<?xml version="1.0" encoding="UTF-8"?>
<svg width="235px" height="639px" viewBox="0 0 235 639" version="1.1" xmlns="http://www.w3.org/2000/svg" xmlns:xlink="http://www.w3.org/1999/xlink">
    <title>Male/Back/Hover/Left Hand</title>
    <g id="Page-1" stroke="none" stroke-width="1" fill="none" fill-rule="evenodd" fill-opacity="0.25">
        <g id="Male/Back/Hover " fill="#A0AEC0" stroke="#A1AFC2" stroke-width="2">
            <path d="M24.832917,303.278407 C22.052924,307.0697 19.6044615,305.917077 15.7924178,309.549737 C13.2510553,311.971511 11.1650173,315.136469 9.53430379,319.044613 C7.54331155,322.506635 6.11239233,324.6033 5.24154615,325.334608 C0.166973804,329.596066 -0.957616822,330.627024 -1.2101431e-13,332.323121 C0.957616822,334.019219 3.41162361,335.52106 7.6586574,333.984355 C9.53430379,333.305689 13.9223127,327.106855 13.9223127,327.897618 C13.9223127,328.688382 12.5362731,339.405606 12.107149,342.738399 C10.8125597,352.792828 10.7599538,359.689745 10.9758409,361.610114 C11.3030189,364.520441 15.4002312,366.657178 16.8173504,363.047612 C18.1235902,354.543511 17.4740303,352.115907 18.2036555,348.173266 C18.9332807,344.230624 19.6527009,339.300624 20.2010697,337.945747 C20.7494384,336.59087 22.4938852,336.809453 22.8130611,337.233022 C23.132237,337.656592 21.9459174,341.086471 20.9984813,350.159393 C20.0510452,359.232316 20.1366368,366.772904 20.9984813,369.781369 C23.5315097,373.106739 25.8539657,370.330181 26.0955249,368.539224 C26.9375489,362.296332 27.1086493,354.95722 27.3132808,351.64422 C27.5527405,347.767347 28.1538019,339.808734 28.6974126,339.196887 C29.2410233,338.585041 30.6535974,338.585041 30.6535974,339.196887 C30.6535974,343.001603 30.3070815,347.621968 30.3070815,349.058994 C30.3070815,358.252146 29.8929254,362.639793 30.6535974,365.953033 C31.4142694,369.266272 35.6267546,368.917757 36.0795293,364.820276 C36.3813791,362.088621 36.5112924,358.803361 36.4692691,354.964494 C37.0156976,344.03758 37.4359437,338.364664 37.7300075,337.945747 C38.1711031,337.317371 39.6092155,337.355826 39.8656079,337.945747 C40.1220002,338.535667 39.203846,354.144461 39.8656079,356.831575 C40.5273697,359.518689 43.5384182,358.707391 44.2739662,355.513849 C44.8993397,349.364137 45.4407308,342.774942 45.8981395,335.746264 C46.1478136,329.603458 46.2726506,325.178277 46.2726506,322.470721 C46.2726506,319.763164 46.1478136,315.656407 45.8981395,310.15045 C46.0564688,309.470577 46.0564688,308.44366 45.8981395,307.0697 C40.0987994,308.410325 29.1484049,307.931235 24.832917,303.278407 Z" id="Left-Hand"></path>
        </g>
    </g>
</svg>