<?xml version="1.0" encoding="UTF-8"?>
<svg width="235px" height="639px" viewBox="0 0 235 639" version="1.1" xmlns="http://www.w3.org/2000/svg" xmlns:xlink="http://www.w3.org/1999/xlink">
    <title>Male/Back/Hover/Right Hand</title>
    <g id="Page-1" stroke="none" stroke-width="1" fill="none" fill-rule="evenodd" fill-opacity="0.25">
        <g id="Male/Back/Hover " fill="#A0AEC0" stroke="#A1AFC2" stroke-width="2">
            <path d="M207.067279,302.524932 C202.518967,307.527977 207.663939,301.785487 203.851895,305.418148 C200.039851,309.050808 201.943639,312.391142 196.008957,317.56303 C190.98241,321.943508 187.906006,324.627024 188.863623,326.323121 C189.82124,328.019219 193.002215,327.859826 197.249249,326.323121 C199.124896,325.644456 202.785936,321.106855 202.785936,321.897618 C202.785936,322.688382 201.399896,333.405606 200.970772,336.738399 C199.676183,346.792828 199.623577,353.689745 199.839464,355.610114 C200.166642,358.520441 203.373644,360.03484 204.790763,356.425273 C206.097003,347.921173 206.337653,346.115907 207.067279,342.173266 C207.796904,338.230624 208.516324,333.300624 209.064693,331.945747 C209.613062,330.59087 211.357508,330.809453 211.676684,331.233022 C211.99586,331.656592 210.809541,335.086471 209.862104,344.159393 C208.914668,353.232316 207.772841,360.595458 208.634685,363.603923 C211.167714,366.929293 214.178978,364.296304 214.420537,362.505348 C215.262561,356.262455 215.972272,348.95722 216.176904,345.64422 C216.416364,341.767347 217.017425,333.808734 217.561036,333.196887 C218.104646,332.585041 219.517221,332.585041 219.517221,333.196887 C219.517221,337.001603 219.170705,341.621968 219.170705,343.058994 C219.170705,352.252146 218.410033,356.361271 219.170705,359.674511 C219.931377,362.987751 223.709859,363.097746 224.162634,359.000264 C224.464484,356.26861 224.85457,352.923353 225.332892,348.964494 C225.879321,338.03758 226.299567,332.364664 226.593631,331.945747 C227.034726,331.317371 228.472839,331.355826 228.729231,331.945747 C228.985623,332.535667 227.575368,347.941699 228.23713,350.628813 C228.898891,353.315927 232.402041,352.707391 233.137589,349.513849 C233.762963,343.364137 234.304354,336.774942 234.761763,329.746264 C235.011437,325.659368 235.136274,321.234186 235.136274,316.470721 C235.136274,309.325522 234.999257,309.55751 234.761763,307.496569 C228.962423,308.837194 211.382766,307.17776 207.067279,302.524932 Z" id="Right-Hand" transform="translate(211.912874, 333.861198) scale(-1, 1) translate(-211.912874, -333.861198) "></path>
        </g>
    </g>
</svg>