<?xml version="1.0" encoding="UTF-8"?>
<svg width="234px" height="640px" viewBox="0 0 234 640" version="1.1" xmlns="http://www.w3.org/2000/svg" xmlns:xlink="http://www.w3.org/1999/xlink">
    <title>Male/Back/Hover</title>
    <g id="Male/Back/Hover" stroke="none" stroke-width="1" fill="none" fill-rule="evenodd" fill-opacity="0.25">
        <path d="M84.2687279,28.8272255 C83.0459809,13.5618368 97.0039523,2.10678876 111.995218,2.10678876 C125.411974,2.10678876 137.179066,7.80823094 138.376435,28.8272255 C138.376435,35.4447423 138.376435,38.7911324 138.376435,38.8663958 C142.381131,36.6680638 144.383478,37.8886598 144.383478,42.5281837 C144.383478,49.4874696 143.010409,49.6835385 140.435787,55.6005781 C138.719373,59.5452712 136.935222,60.2836439 135.083334,57.8156962 C134.011742,67.6293745 133.310063,73.0551249 132.978299,74.0929475 C132.741532,74.8335997 129.688625,77.6658682 125.884021,81.8479974 C124.790364,83.0501759 122.768089,84.7035255 119.817194,86.8080463 C118.489939,87.7539533 116.894488,88.2269069 115.030842,88.2269069 C113.167195,88.2269069 109.990248,88.2269069 105.5,88.2269069 C103.100556,88.3936496 100.724467,87.2652101 98.371734,84.8415882 C96.0190009,82.4179663 93.0845935,78.2555859 89.5685117,72.354447 C88.3725593,70.0741733 87.7745831,67.6442904 87.7745831,65.0647985 C87.7745831,62.4853066 87.6380036,60.5886471 87.3648445,59.37482 C85.1638143,59.5481924 83.7241931,58.2083705 83.0459809,55.3553544 C82.0286627,51.0758303 79.1444884,43.9143102 79.6704698,40.0402175 C80.0211241,37.457489 81.5538768,37.330881 84.2687279,39.6603933 C84.2687279,40.3756389 84.2687279,36.764583 84.2687279,28.8272255 Z" id="Head" stroke="#A1AFC2" stroke-width="2" fill="#A0AEC0"></path>
        <path d="M37.653576,123.987586 C32.740195,129.373295 31.9208107,133.243007 30.9595817,141.612391 C42.5994002,145.867463 59.3542775,145.867463 64.6674233,136.309546 C65.4649995,136.309546 69.757433,127.15167 79.6069572,125.933466 C91.3338136,124.483071 104.495352,129.419896 105.673338,129.419896 C106.128082,122.238201 106.443705,114.521353 106.466157,107.717738 C106.495781,98.740594 106.443705,91.6761619 106.1373,88.2430068 C105.004404,88.2430068 104.079492,88.6430441 100.249685,86.330563 C96.7986933,84.2468151 93.7092825,79.8853907 89.5685117,72.354447 C91.4614357,86.9490763 95.4111507,90.1588595 67.1304505,106.223861 C60.4825156,110.000255 53.313366,106.822405 37.653576,123.987586 Z" id="Left-Shoulder" stroke="#A1AFC2" stroke-width="2" fill="#A0AEC0"></path>
        <path d="M126.31559,120.566753 C121.402209,125.952462 120.778423,131.460471 119.817194,139.829855 C131.457013,144.084927 146.824641,143.767135 152.137787,134.209219 C153.433265,132.906287 158.00011,127.15167 167.849635,125.933466 C179.576491,124.483071 190.406903,129.396927 191.584889,129.396927 C192.039633,122.215232 192.277144,120.781243 193.175648,108.345554 C194.048826,99.102822 195.308613,90.5136453 195.808613,86.8080463 C194.048826,85.6378702 193.434972,85.3979055 190.668206,82.8097722 C188.351535,80.6426736 186.877335,78.9658403 182.572559,72.990586 C184.465483,87.5852153 182.810753,88.6806575 154.530053,104.745659 C147.882118,108.522053 141.97538,103.401573 126.31559,120.566753 Z" id="Right-Shoulder" stroke="#A1AFC2" stroke-width="2" fill="#A0AEC0" transform="translate(157.812904, 107.717738) scale(-1, 1) translate(-157.812904, -107.717738) "></path>
        <path d="M124.040919,149.40125 C124.040919,155.37099 125.589333,168.159647 126.509113,168.763167 C128.826468,170.283715 134.541922,171.401157 143.258949,169.320852 C154.958486,166.528774 165.071858,158.589185 167.373146,156.941574 C167.827891,149.759879 167.357206,141.832616 168.25571,129.396927 C162.997307,128.246383 143.613797,120.149192 127.715009,135.716021 C124.53863,138.826078 124.53863,145.753621 124.040919,149.40125 Z" id="Right-Scapula" stroke="#A1AFC2" stroke-width="2" fill="#A0AEC0" transform="translate(146.148314, 148.365881) scale(-1, 1) translate(-146.148314, -148.365881) "></path>
        <path d="M61.5031174,148.017613 C61.5031174,153.987353 63.2963259,168.573251 63.520331,168.763167 C65.6098758,170.534722 71.4656001,171.026922 80.2701669,169.320852 C91.7433211,167.097685 103.195392,158.875065 105.673338,157.597152 C105.673338,150.532697 105.673338,142.824921 105.673338,129.419896 C100.414935,128.269352 75.5740667,116.845867 64.7262269,135.716021 C61.5031174,141.32272 62.0008292,144.369985 61.5031174,148.017613 Z" id="Left-Scapula" stroke="#A1AFC2" stroke-width="2" fill="#A0AEC0"></path>
        <path d="M57.7580788,315.329548 C57.7580788,321.299288 71.2243814,337.850856 94.3689128,334.690641 C113.318413,332.103227 120.313391,338.568574 119.502438,288.966256 C117,285.269623 117.5,284.329371 115.978259,281.8652 C102.53823,273.110599 78.932125,265.309117 64.1621457,278.556811 C60.9661148,281.423439 58.2557907,311.681919 57.7580788,315.329548 Z" id="Left-Glute" stroke="#A1AFC2" stroke-width="2" fill="#A0AEC0"></path>
        <path d="M119.544653,317.334805 C119.544653,323.304545 129.256289,333.793843 152.608103,333.793843 C175.28589,333.793843 176.991122,331.103227 174.858172,287.966256 C172.355734,284.269623 172.855734,283.329371 171.333994,280.8652 C157.893964,272.110599 141.889818,265.514988 127.119839,278.762682 C123.923808,281.62931 120.042365,313.687177 119.544653,317.334805 Z" id="Right-Glute" stroke="#A1AFC2" stroke-width="2" fill="#A0AEC0" transform="translate(147.542868, 302.524932) scale(-1, 1) translate(-147.542868, -302.524932) "></path>
        <path d="M33.5917068,173.168979 C33.5917068,179.13872 30.4040673,205.733325 30.0766563,207.851398 C33.8609416,211.146703 52.6072548,212.178907 61.5031174,211.078654 C62.3005457,205.206019 65.5692704,190.781919 64.4007083,175.25076 C63.8758183,168.274537 59.8227417,153.838393 62.3006622,140.048128 C51.9957846,144.336661 47.5546889,146.561339 30.9595817,141.612391 C30.0766563,149.553283 33.5917068,162.594273 33.5917068,173.168979 Z" id="Left-Tricep" stroke="#A1AFC2" stroke-width="2" fill="#A0AEC0"></path>
        <path d="M25.7756083,225.952537 C37.4663637,231.653275 47.3560421,236.865652 59.8626146,233.464744 C59.3377246,226.488521 59.8626146,221.996553 61.4007083,211.309531 C49.3383076,212.787174 33.402074,211.002296 30.0766563,207.851398 C29.1937309,215.792291 25.7756083,215.37783 25.7756083,225.952537 Z" id="Left-Elbow" stroke="#A1AFC2" stroke-width="2" fill="#A0AEC0"></path>
        <path d="M26.8191554,285.929821 C31.1202035,291.008572 40.5271487,290.623854 47.5882406,290.001868 C47.0633507,283.025645 60.5941768,247.410729 59.8626146,233.464744 C42.8478484,237.43361 30.0766563,228.142201 25.7756083,225.952537 C24.8926828,233.893429 29.7821309,267.291653 26.8191554,285.929821 Z" id="Left-Forearm" stroke="#A1AFC2" stroke-width="2" fill="#A0AEC0"></path>
        <path d="M172.795626,285.929821 C177.096674,291.008572 186.225109,290.978507 193.286201,290.356521 C192.761311,283.380298 211.241251,243.353694 209.461392,232.741257 C192.446626,236.710123 179.618958,228.2108 175.31791,226.021136 C174.434985,233.962028 175.758602,267.291653 172.795626,285.929821 Z" id="Right-Forearm" stroke="#A1AFC2" stroke-width="2" fill="#A0AEC0" transform="translate(191.188926, 258.331704) scale(-1, 1) translate(-191.188926, -258.331704) "></path>
        <path d="M171.12336,226.021136 C182.814115,231.721874 192.760269,236.142165 205.266842,232.741257 C204.741952,225.765034 205.521848,222.189219 207.059941,211.502198 C194.997541,212.979841 179.313878,211.056554 175.988461,207.905656 C174.135895,215.722371 171.12336,215.446429 171.12336,226.021136 Z" id="Right-Elbow" stroke="#A1AFC2" stroke-width="2" fill="#A0AEC0" transform="translate(189.091651, 220.917275) scale(-1, 1) translate(-189.091651, -220.917275) "></path>
        <path d="M171.755115,173.168979 C171.198898,181.958306 166.023007,205.499688 165.695596,207.617761 C169.479881,210.913066 187.871214,212.602451 196.767077,211.502198 C197.564505,205.629563 203.204667,186.205946 202.036105,170.674787 C201.511215,163.698565 198.437256,152.736799 200.915176,138.946534 C190.610299,143.235067 186.619724,143.68147 172.081823,140.048128 C171.198898,147.989021 172.419035,162.677723 171.755115,173.168979 Z" id="Right-Tricep" stroke="#A1AFC2" stroke-width="2" fill="#A0AEC0" transform="translate(183.945218, 175.391947) scale(-1, 1) translate(-183.945218, -175.391947) "></path>
        <path d="M66.1425311,220.254916 C66.1425311,226.224656 63.2982299,278.965267 63.520331,278.763843 C73.7381519,269.442696 87.5184449,264.536075 111.172837,278.763843 C110.695182,269.469186 107.173798,242.335055 106.473401,219.731176 C106.473401,212.666721 105.673338,171.002177 105.673338,157.597152 C97.4648674,161.777767 81.8982151,175.183548 63.520331,168.763167 C68.3043548,198.693308 62.1615762,202.157596 66.1425311,220.254916 Z" id="Left-Abdomen" stroke="#A1AFC2" stroke-width="2" fill="#A0AEC0"></path>
        <path d="M128.507258,195.98145 C141.299985,228.982007 122.499267,265.738705 125.304513,278.762682 C136.866104,268.972434 149.425721,268.972434 167.145028,279.424408 C166.667373,270.130913 167.25383,243.247312 168.25571,219.582092 C168.25571,212.517638 168.25571,170.70401 168.25571,157.298985 C160.437311,161.737267 145.020554,174.358349 127.482895,168.763167 C129.048102,173.175332 127.116377,173.356674 128.507258,195.98145 Z" id="Right-Abdomen" stroke="#A1AFC2" stroke-width="2" fill="#A0AEC0" transform="translate(146.635206, 218.361697) scale(-1, 1) translate(-146.635206, -218.361697) "></path>
        <path d="M107.29283,234.545211 C107.29283,239.698361 109.598415,278.217001 116.200184,281.013655 C119.678243,291.617123 119.678243,291.617123 122.540073,281.013655 C128.112283,278.763843 125.52636,239.369198 125.52636,235.100346 C124.85136,225.811453 125.014701,214.615012 125.014701,211.002296 C124.11078,211.002296 125.014701,114.116154 119.492047,87.0520544 C117.5,88.2430068 111.615565,88.2430068 106.501238,88.2430068 C105.673338,123.992648 107.235503,211.002296 106.501238,211.002296 C106.501238,216.969047 107.29283,225.835877 107.29283,234.545211 Z" id="Spine" stroke="#A1AFC2" stroke-width="2" fill="#A0AEC0"></path>
        <path d="M24.832917,303.278407 C22.052924,307.0697 19.6044615,305.917077 15.7924178,309.549737 C13.2510553,311.971511 11.1650173,315.136469 9.53430379,319.044613 C7.54331155,322.506635 6.11239233,324.6033 5.24154615,325.334608 C0.166973804,329.596066 -0.957616822,330.627024 -1.2101431e-13,332.323121 C0.957616822,334.019219 3.41162361,335.52106 7.6586574,333.984355 C9.53430379,333.305689 13.9223127,327.106855 13.9223127,327.897618 C13.9223127,328.688382 12.5362731,339.405606 12.107149,342.738399 C10.8125597,352.792828 10.7599538,359.689745 10.9758409,361.610114 C11.3030189,364.520441 15.4002312,366.657178 16.8173504,363.047612 C18.1235902,354.543511 17.4740303,352.115907 18.2036555,348.173266 C18.9332807,344.230624 19.6527009,339.300624 20.2010697,337.945747 C20.7494384,336.59087 22.4938852,336.809453 22.8130611,337.233022 C23.132237,337.656592 21.9459174,341.086471 20.9984813,350.159393 C20.0510452,359.232316 20.1366368,366.772904 20.9984813,369.781369 C23.5315097,373.106739 25.8539657,370.330181 26.0955249,368.539224 C26.9375489,362.296332 27.1086493,354.95722 27.3132808,351.64422 C27.5527405,347.767347 28.1538019,339.808734 28.6974126,339.196887 C29.2410233,338.585041 30.6535974,338.585041 30.6535974,339.196887 C30.6535974,343.001603 30.3070815,347.621968 30.3070815,349.058994 C30.3070815,358.252146 29.8929254,362.639793 30.6535974,365.953033 C31.4142694,369.266272 35.6267546,368.917757 36.0795293,364.820276 C36.3813791,362.088621 36.5112924,358.803361 36.4692691,354.964494 C37.0156976,344.03758 37.4359437,338.364664 37.7300075,337.945747 C38.1711031,337.317371 39.6092155,337.355826 39.8656079,337.945747 C40.1220002,338.535667 39.203846,354.144461 39.8656079,356.831575 C40.5273697,359.518689 43.5384182,358.707391 44.2739662,355.513849 C44.8993397,349.364137 45.4407308,342.774942 45.8981395,335.746264 C46.1478136,329.603458 46.2726506,325.178277 46.2726506,322.470721 C46.2726506,319.763164 46.1478136,315.656407 45.8981395,310.15045 C46.0564688,309.470577 46.0564688,308.44366 45.8981395,307.0697 C40.0987994,308.410325 29.1484049,307.931235 24.832917,303.278407 Z" id="Left-Hand" stroke="#A1AFC2" stroke-width="2" fill="#A0AEC0"></path>
        <path d="M207.067279,302.524932 C202.518967,307.527977 207.663939,301.785487 203.851895,305.418148 C200.039851,309.050808 201.943639,312.391142 196.008957,317.56303 C190.98241,321.943508 187.906006,324.627024 188.863623,326.323121 C189.82124,328.019219 193.002215,327.859826 197.249249,326.323121 C199.124896,325.644456 202.785936,321.106855 202.785936,321.897618 C202.785936,322.688382 201.399896,333.405606 200.970772,336.738399 C199.676183,346.792828 199.623577,353.689745 199.839464,355.610114 C200.166642,358.520441 203.373644,360.03484 204.790763,356.425273 C206.097003,347.921173 206.337653,346.115907 207.067279,342.173266 C207.796904,338.230624 208.516324,333.300624 209.064693,331.945747 C209.613062,330.59087 211.357508,330.809453 211.676684,331.233022 C211.99586,331.656592 210.809541,335.086471 209.862104,344.159393 C208.914668,353.232316 207.772841,360.595458 208.634685,363.603923 C211.167714,366.929293 214.178978,364.296304 214.420537,362.505348 C215.262561,356.262455 215.972272,348.95722 216.176904,345.64422 C216.416364,341.767347 217.017425,333.808734 217.561036,333.196887 C218.104646,332.585041 219.517221,332.585041 219.517221,333.196887 C219.517221,337.001603 219.170705,341.621968 219.170705,343.058994 C219.170705,352.252146 218.410033,356.361271 219.170705,359.674511 C219.931377,362.987751 223.709859,363.097746 224.162634,359.000264 C224.464484,356.26861 224.85457,352.923353 225.332892,348.964494 C225.879321,338.03758 226.299567,332.364664 226.593631,331.945747 C227.034726,331.317371 228.472839,331.355826 228.729231,331.945747 C228.985623,332.535667 227.575368,347.941699 228.23713,350.628813 C228.898891,353.315927 232.402041,352.707391 233.137589,349.513849 C233.762963,343.364137 234.304354,336.774942 234.761763,329.746264 C235.011437,325.659368 235.136274,321.234186 235.136274,316.470721 C235.136274,309.325522 234.999257,309.55751 234.761763,307.496569 C228.962423,308.837194 211.382766,307.17776 207.067279,302.524932 Z" id="Right-Hand" stroke="#A1AFC2" stroke-width="2" fill="#A0AEC0" transform="translate(211.912874, 333.861198) scale(-1, 1) translate(-211.912874, -333.861198) "></path>
        <path d="M57.7580788,316.298476 C56.8292201,326.030877 54.496928,338.817905 57.7580788,365.197464 C61.0192297,391.577022 71.8055278,416.280468 73.1073552,443.507861 C88.6615672,444.428573 98.6338096,443.507861 111.172837,441.507861 C113.910445,427.096751 110.003762,414.106474 112.263278,397.394922 C114.659738,374.284665 117,363.973908 115.661333,327.392321 C112.161571,333.793843 104.310281,334.209097 96.9324066,334.690641 C81.7516877,335.681466 66.4485971,333.793843 57.7580788,316.298476 Z" id="Left-Thigh" stroke="#A1AFC2" stroke-width="2" fill="#A0AEC0"></path>
        <path d="M118.784965,317.334805 C117.14306,328.725109 120.588818,364.623051 125.457785,382.081208 C130.326752,399.539365 131.914169,414.113655 133.215996,441.341048 C148.770208,442.26176 159.190807,441.428573 171.621934,440.507861 C174.511115,422.688167 171.892213,415.454875 173.113931,395.1328 C174.335648,374.810724 178.297232,354.498297 174.012657,323.944448 C171.850418,332.254031 166.177476,333.793843 156.858715,333.793843 C141.670823,333.793843 122.090421,331.228759 118.784965,317.334805 Z" id="Right-Thigh" stroke="#A1AFC2" stroke-width="2" fill="#A0AEC0" transform="translate(147.163024, 379.538067) scale(-1, 1) translate(-147.163024, -379.538067) "></path>
        <path d="M122.704115,498.314841 C121.967496,522.459247 127.151376,544.427708 122.704115,569.254688 C123.440734,569.234602 131.177382,569.274774 144.24673,570.696168 C144.24673,570.696168 154.50712,532.114954 161.110052,504.232678 C167.712985,476.350403 159.147382,464.768874 161.110052,441.341048 C147.766047,441.74133 133.139981,441.74133 122.704115,440.507861 C128.470506,467.00283 123.549213,470.614773 122.704115,498.314841 Z" id="Right-Calf" stroke="#A1AFC2" stroke-width="2" fill="#A0AEC0"></path>
        <path d="M71.8320854,496.111073 C68.7384864,519.174552 77.0866301,549.044473 74.9256845,569.804047 C75.6623035,569.783962 82.7031963,570.172764 95.7725443,571.594159 C95.7725443,571.594159 106.073303,532.512017 110.288423,506.718749 C114.503543,480.925481 108.543161,466.873448 109.849222,443.507861 C95.9960926,444.679751 82.2679519,442.974799 71.8320854,441.74133 C77.750425,469.606291 74.9256845,473.047593 71.8320854,496.111073 Z" id="Left-Calf" stroke="#A1AFC2" stroke-width="2" fill="#A0AEC0" transform="translate(91.478288, 506.667744) scale(-1, 1) translate(-91.478288, -506.667744) "></path>
        <path d="M122.704115,569.254688 C126.603375,569.254688 138.792598,570.209356 144.24673,570.696168 C143.142747,579.191849 142.488267,596.005285 142.488267,597.125612 C136.242179,596.653176 123.748769,596.06647 118.39909,596.06647 C118.635644,580.044149 122.279379,570.696168 122.704115,569.254688 Z" id="Right-Ankle" stroke="#A1AFC2" stroke-width="2" fill="#A0AEC0"></path>
        <path d="M118.184279,596.232792 C122.08354,596.232792 137.034136,596.638799 142.488267,597.125612 C142.488267,600.418052 147.16804,603.035527 147.917735,607.56951 C149.082975,614.616614 141.517176,615.706155 137.070638,615.369832 C130.82455,614.897397 115.735976,616.995959 114.495633,609.195636 C113.102256,600.432909 117.282679,599.140955 118.184279,596.232792 Z" id="Right-Heel" stroke="#A1AFC2" stroke-width="2" fill="#A0AEC0"></path>
        <path d="M76.5440604,596.232792 C80.4433206,596.232792 94.2244147,596.638799 99.6785462,597.125612 C100.427758,601.214092 112.290957,601.844682 112.290957,607.610074 C112.290957,615.369832 99.5478082,614.614061 95.2839973,615.423435 C90.5709356,616.318088 77.031527,621.479231 75.7911836,613.678909 C74.3978066,604.916181 76.5440604,600.179308 76.5440604,596.232792 Z" id="Left-Heel" stroke="#A1AFC2" stroke-width="2" fill="#A0AEC0" transform="translate(93.805895, 607.078794) scale(-1, 1) translate(-93.805895, -607.078794) "></path>
        <path d="M90.4994384,569.804047 C99.1960035,570.305497 104.583671,570.696168 111.346298,571.594159 C109.590746,583.19015 110.597086,596.005285 110.597086,597.125612 C104.350998,596.653176 92.8310658,596.128222 87.4813875,596.128222 C86.1439248,583.92 89.7058013,573.662895 90.4994384,569.804047 Z" id="Left-Ankle" stroke="#A1AFC2" stroke-width="2" fill="#A0AEC0" transform="translate(99.265165, 583.464830) scale(-1, 1) translate(-99.265165, -583.464830) "></path>
        <path d="M26.8191554,285.929821 C26.0169402,291.792555 26.8191554,295.92697 24.832917,303.278407 C31.1140701,309.373147 45.8981395,307.0697 45.8981395,307.0697 C45.8981395,307.0697 48.017177,294.899646 47.5882406,290.001868 C40.90047,290.356521 31.7110293,291.409319 26.8191554,285.929821 Z" id="Left-Wrist" stroke="#A1AFC2" stroke-width="2" fill="#A0AEC0"></path>
        <path d="M189.091651,290.642273 C189.091651,296.778952 189.091651,300.440302 189.091651,307.330663 C201.26881,308.516452 210.786586,306.751331 216.928502,302.833902 C215.08003,300.038581 211.380653,296.812306 209.582225,285.929821 C205.873797,288.966256 205.873797,290.827599 189.091651,290.642273 Z" id="Right-Wrist" stroke="#A1AFC2" stroke-width="2" fill="#A0AEC0"></path>
    </g>
</svg>